PathFileType	4	(X/Y/Z)	SUBJ36_1_walk_RCNL2025.trc
DataRate	CameraRate	NumFrames	NumMarkers	Units	OrigDataRate	OrigDataStartFrame	OrigNumFrames
100	100	10	25	mm	100	1	378
Frame#	Time	R_Shoulder			L_Shoulder			C7			J_Notch			R_Elbow			L_Elbow			R_Wrist			L_Wrist			R_Asis			L_Asis			Sacral			Thoracic			Sternum			R_Thigh_Lateral			R_Knee_Lateral			R_Shank_Lateral			R_Ankle_Lateral			R_Heel			R_Toe			L_Thigh_Lateral			L_Knee_Lateral			L_Shank_Lateral			L_Ankle_Lateral			L_Heel			L_Toe		
		X1	Y1	Z1	X2	Y2	Z2	X3	Y3	Z3	X4	Y4	Z4	X5	Y5	Z5	X6	Y6	Z6	X7	Y7	Z7	X8	Y8	Z8	X9	Y9	Z9	X10	Y10	Z10	X11	Y11	Z11	X12	Y12	Z12	X13	Y13	Z13	X14	Y14	Z14	X15	Y15	Z15	X16	Y16	Z16	X17	Y17	Z17	X18	Y18	Z18	X19	Y19	Z19	X20	Y20	Z20	X21	Y21	Z21	X22	Y22	Z22	X23	Y23	Z23	X24	Y24	Z24	X25	Y25	Z25
1	0.00000000	-1140.336548	1360.423706	-183.781586	-1139.085815	1324.947388	-527.346863	-1199.713867	1414.082520	-344.573853	-1065.050537	1307.343140	-346.699463	-1217.962158	1049.963745	-97.556488	-1199.765869	1011.550293	-568.763306	-1149.960815	820.852142	-65.798941	-1122.656433	792.987823	-582.332794	-1091.172974	913.432983	-214.897461	-1078.465942	918.944458	-445.324371	-1302.355225	904.349731	-331.511658	-1284.450684	1156.471558	-331.354340	-1037.046997	1127.001587	-327.738190	-1117.141968	503.024414	-155.792435	-1104.683716	450.309113	-197.548218	-1264.806519	338.975830	-170.303558	-1375.799683	206.258347	-235.195618	-1415.966187	215.142441	-293.114136	-1315.861206	97.200317	-234.041641	-1117.041382	519.517700	-514.867859	-1122.674438	447.298492	-439.343842	-1173.767578	239.333496	-461.959351	-1188.473022	74.968796	-380.236359	-1221.705688	46.887794	-321.239899	-1061.115723	49.565018	-375.657135
2	0.01000000	-1130.661133	1361.334473	-184.179947	-1127.174438	1326.275391	-527.817993	-1188.953613	1415.016479	-345.294434	-1054.653809	1308.385498	-347.146057	-1210.350830	1051.051147	-98.656876	-1185.651001	1012.463379	-569.773315	-1143.957764	821.764557	-65.504150	-1105.825134	794.748383	-581.495544	-1081.080933	914.991394	-215.809845	-1068.349365	919.537964	-446.241180	-1292.218018	905.006104	-331.769775	-1273.929565	1157.406982	-333.228729	-1026.939819	1127.840210	-327.782867	-1097.289062	505.838379	-156.143448	-1084.214844	453.194061	-198.340607	-1241.103027	337.016663	-170.622391	-1347.056030	200.815842	-235.001877	-1388.684326	206.888550	-292.700378	-1281.982300	95.196609	-232.992477	-1113.144653	519.707764	-515.198059	-1120.886963	447.354340	-439.552124	-1173.347778	239.572067	-461.972137	-1188.362061	75.006714	-380.168823	-1221.382812	46.820408	-320.851715	-1061.048828	49.524284	-375.798035
3	0.02000000	-1121.030518	1362.122192	-184.614517	-1115.307617	1327.466797	-528.287598	-1178.237793	1415.788452	-346.022980	-1044.338989	1309.243896	-347.594086	-1202.709961	1052.018188	-99.791618	-1171.585693	1013.270569	-570.851135	-1137.876831	822.585602	-65.240017	-1088.968201	796.464996	-580.626221	-1070.910889	916.348206	-216.735580	-1058.360962	919.884888	-447.081909	-1282.090088	905.514587	-331.831451	-1263.409180	1158.176392	-335.063507	-1016.785400	1128.530151	-327.822357	-1077.720459	508.641235	-156.481018	-1064.229248	456.020386	-199.134827	-1217.342163	334.251160	-170.695999	-1317.903076	194.288010	-234.657150	-1360.555908	197.617493	-291.941772	-1247.603271	92.640152	-232.034988	-1109.711182	519.802856	-515.453003	-1119.245972	447.434113	-439.671600	-1172.994263	239.834625	-461.884827	-1188.318115	75.099243	-380.122253	-1221.141846	46.797924	-320.533539	-1060.949829	49.480976	-375.905731
4	0.03000000	-1111.422974	1362.757812	-185.075806	-1103.483398	1328.481934	-528.754395	-1167.553711	1416.383057	-346.761383	-1034.073242	1309.879883	-347.970886	-1195.001343	1052.837158	-100.948257	-1157.560059	1013.931274	-571.979614	-1131.698730	823.276764	-65.001396	-1072.105835	798.111237	-579.737366	-1060.677856	917.511047	-217.655548	-1048.526611	919.963318	-447.837158	-1271.968750	905.889404	-331.741455	-1252.884155	1158.771729	-336.848053	-1006.591553	1129.043091	-327.855164	-1058.532349	511.401428	-156.824066	-1044.753418	458.723175	-199.914597	-1193.458862	330.689606	-170.535934	-1288.271484	186.866364	-234.230011	-1331.620972	187.570770	-291.004883	-1212.790894	89.623520	-231.190262	-1106.658691	519.850830	-515.634338	-1117.733765	447.544464	-439.713348	-1172.695312	240.104813	-461.714722	-1188.358643	75.267365	-380.124573	-1221.050659	46.897865	-320.391510	-1060.821655	49.436638	-375.977325
5	0.04000000	-1101.812134	1363.214600	-185.557816	-1091.700073	1329.285034	-529.213867	-1156.889282	1416.783203	-347.508606	-1023.849426	1310.266602	-348.231049	-1187.192627	1053.481445	-102.117630	-1143.538086	1014.393860	-573.102051	-1125.404419	823.804626	-64.785557	-1055.245300	799.658783	-578.819122	-1050.404907	918.484863	-218.549957	-1038.831299	919.778564	-448.512390	-1261.850830	906.135437	-331.541718	-1242.354858	1159.186890	-338.576599	-996.364502	1129.356934	-327.886902	-1039.806030	514.086670	-157.176788	-1025.813721	461.235138	-200.665649	-1169.376709	326.363312	-170.163071	-1258.090820	178.739456	-233.773666	-1301.906494	176.965698	-289.998871	-1177.567749	86.241447	-230.498245	-1103.955566	519.905945	-515.750610	-1116.351807	447.694275	-439.694092	-1172.438232	240.373734	-461.485474	-1188.468628	75.521797	-380.176147	-1221.124512	47.174320	-320.475311	-1060.675537	49.392918	-376.017914
6	0.05000000	-1092.171631	1363.469482	-186.055862	-1079.955688	1329.844482	-529.658142	-1146.235229	1416.970337	-348.261749	-1013.677856	1310.384277	-348.363800	-1179.258789	1053.927979	-103.293159	-1129.462158	1014.598572	-574.123535	-1118.977112	824.142395	-64.590754	-1038.382935	801.078979	-577.848145	-1040.112061	919.271545	-219.403961	-1029.209839	919.365173	-449.135132	-1251.730347	906.244507	-331.264740	-1231.825439	1159.413452	-340.243500	-986.107361	1129.454834	-327.925720	-1021.601868	516.660889	-157.532898	-1007.432922	463.493347	-201.373505	-1145.022705	321.340973	-169.613770	-1227.309570	170.096832	-233.328476	-1271.431885	165.998108	-288.995331	-1141.928467	82.597389	-230.007126	-1101.625610	520.023987	-515.819397	-1115.111816	447.894226	-439.631500	-1172.213989	240.643951	-461.222198	-1188.602051	75.859566	-380.247284	-1221.308716	47.631279	-320.741547	-1060.532104	49.351696	-376.042694
7	0.06000000	-1082.481079	1363.505005	-186.561600	-1068.250977	1330.135132	-530.080322	-1135.584717	1416.927368	-349.015717	-1003.568298	1310.218018	-348.385986	-1171.180420	1054.156616	-104.469208	-1115.290649	1014.497986	-574.961487	-1112.403748	824.270233	-64.415379	-1021.509491	802.346527	-576.801605	-1029.809570	919.872620	-220.206985	-1019.579468	918.772461	-449.738617	-1241.597534	906.197754	-330.933411	-1221.298828	1159.439575	-341.838135	-975.819458	1129.323486	-327.982117	-1003.960938	519.080261	-157.884766	-989.628845	465.444458	-202.023331	-1120.345947	315.733673	-168.941483	-1195.904907	161.131317	-232.923752	-1240.211304	154.842880	-288.048035	-1105.866211	78.809608	-229.761353	-1099.727051	520.252075	-515.860229	-1114.024780	448.157471	-439.540375	-1172.016846	240.929443	-460.945801	-1188.709717	76.266670	-380.293610	-1221.511353	48.228367	-321.075317	-1060.415283	49.314571	-376.072723
8	0.07000000	-1072.728516	1363.310059	-187.061371	-1056.592163	1330.140259	-530.478149	-1124.934692	1416.642212	-349.764221	-993.517395	1309.763916	-348.328888	-1162.943970	1054.150879	-105.639778	-1101.042358	1014.083008	-575.609863	-1105.675598	824.175079	-64.255993	-1004.617950	803.442505	-575.666779	-1019.499939	920.289307	-220.948532	-1009.881165	918.044495	-450.341675	-1231.441162	905.971191	-330.563477	-1210.775635	1159.252197	-343.343048	-965.497620	1128.950439	-328.065918	-986.913818	521.292542	-158.230377	-972.414551	467.047607	-202.601959	-1095.332642	309.686340	-168.213669	-1163.881958	152.031372	-232.584396	-1208.254272	143.653839	-287.207794	-1069.404419	75.017982	-229.784592	-1098.314697	520.620850	-515.884338	-1113.089233	448.500305	-439.429840	-1171.843506	241.253128	-460.668518	-1188.769043	76.727226	-380.278046	-1221.659424	48.914436	-321.350311	-1060.340454	49.282372	-376.125824
9	0.08000000	-1062.906372	1362.877563	-187.541016	-1044.988403	1329.854858	-530.850647	-1114.286255	1416.111572	-350.503143	-983.497620	1309.032837	-348.228027	-1154.539551	1053.898804	-106.797256	-1086.790405	1013.383057	-576.135559	-1098.786255	823.848938	-64.107264	-987.713287	804.356750	-574.446350	-1009.182373	920.517761	-221.616608	-1000.088501	917.209839	-450.945221	-1221.250977	905.541443	-330.166962	-1200.255493	1158.841553	-344.736298	-955.140015	1128.325317	-328.180206	-970.492188	523.240295	-158.572983	-955.798584	468.276459	-203.100784	-1070.016113	303.360626	-167.504181	-1131.267822	142.973312	-232.335968	-1175.568848	132.565414	-286.525848	-1032.610229	71.381935	-230.072708	-1097.399292	521.145386	-515.885986	-1112.281250	448.940826	-439.303070	-1171.691650	241.643616	-460.391205	-1188.781738	77.233696	-380.178894	-1221.720459	49.659409	-321.475220	-1060.304810	49.255470	-376.209106
10	0.09000000	-1053.006226	1362.202637	-187.991119	-1033.447876	1329.283447	-531.195068	-1103.647095	1415.342529	-351.233887	-973.452393	1308.050049	-348.120575	-1145.958862	1053.393799	-107.931129	-1072.614502	1012.440247	-576.616150	-1091.728699	823.285645	-63.966085	-970.815308	805.086670	-573.154144	-998.854553	920.544739	-222.200012	-990.195374	916.280823	-451.540131	-1211.018799	904.891113	-329.755859	-1189.736572	1158.202881	-345.995667	-944.747009	1127.444946	-328.324341	-954.731689	524.864929	-158.916153	-939.785095	469.118622	-203.516998	-1044.478516	296.919037	-166.880020	-1098.111938	134.121658	-232.201996	-1142.177124	121.699638	-286.044098	-995.579712	68.067955	-230.606430	-1096.918945	521.829834	-515.841980	-1111.550659	449.495148	-439.158997	-1171.560303	242.132187	-460.103027	-1188.753540	77.790741	-379.984253	-1221.686523	50.461037	-321.404144	-1060.289795	49.234024	-376.317444
